<svg width="48" height="48" viewBox="0 0 48 48" fill="none" xmlns="http://www.w3.org/2000/svg">
<path d="M24 18V26M24 34H24.02M20.58 7.72004L3.64004 36C3.29078 36.6049 3.10598 37.2906 3.10402 37.9891C3.10206 38.6875 3.28302 39.3743 3.62889 39.9811C3.97477 40.5879 4.47349 41.0935 5.07546 41.4477C5.67742 41.802 6.36164 41.9924 7.06004 42H40.94C41.6384 41.9924 42.3227 41.802 42.9246 41.4477C43.5266 41.0935 44.0253 40.5879 44.3712 39.9811C44.7171 39.3743 44.898 38.6875 44.8961 37.9891C44.8941 37.2906 44.7093 36.6049 44.36 36L27.42 7.72004C27.0635 7.13226 26.5615 6.64628 25.9624 6.30901C25.3634 5.97174 24.6875 5.79456 24 5.79456C23.3126 5.79456 22.6367 5.97174 22.0377 6.30901C21.4386 6.64628 20.9366 7.13226 20.58 7.72004Z" stroke="#FFE100" stroke-width="4" stroke-linecap="round" stroke-linejoin="round"/>
</svg>
