<svg width="28" height="28" viewBox="0 0 28 28" fill="none" xmlns="http://www.w3.org/2000/svg">
<path d="M11.9793 24.5001C12.1841 24.8548 12.4787 25.1493 12.8334 25.3541C13.1881 25.5588 13.5904 25.6667 14 25.6667C14.4096 25.6667 14.8119 25.5588 15.1666 25.3541C15.5213 25.1493 15.8159 24.8548 16.0207 24.5001M16.2353 2.69976C15.1824 2.34494 14.0601 2.24587 12.9613 2.41075C11.8625 2.57562 10.8187 2.9997 9.91626 3.64791C9.01382 4.29613 8.27865 5.14985 7.77154 6.1385C7.26444 7.12715 6.99996 8.22231 6.99999 9.33342C6.99999 14.5823 5.35382 16.2821 3.80332 17.8816C3.65116 18.0488 3.55087 18.2567 3.51464 18.4798C3.47842 18.703 3.50783 18.9319 3.59929 19.1387C3.69075 19.3455 3.84032 19.5212 4.02981 19.6445C4.21931 19.7679 4.44056 19.8335 4.66666 19.8334H23.3333C23.5594 19.8335 23.7807 19.7679 23.9702 19.6445C24.1597 19.5212 24.3092 19.3455 24.4007 19.1387C24.4922 18.9319 24.5216 18.703 24.4853 18.4798C24.4491 18.2567 24.3488 18.0488 24.1967 17.8816C23.9566 17.6343 23.7288 17.3754 23.5142 17.1058" stroke="#3E6AF4" stroke-width="2" stroke-linecap="round" stroke-linejoin="round"/>
<path d="M21 12.8335C22.933 12.8335 24.5 11.2665 24.5 9.3335C24.5 7.4005 22.933 5.8335 21 5.8335C19.067 5.8335 17.5 7.4005 17.5 9.3335C17.5 11.2665 19.067 12.8335 21 12.8335Z" fill="#FF3B30" stroke="#FF3B30" stroke-width="2" stroke-linecap="round" stroke-linejoin="round"/>
</svg>
