<svg width="28" height="28" viewBox="0 0 28 28" fill="none" xmlns="http://www.w3.org/2000/svg">
<path fill-rule="evenodd" clip-rule="evenodd" d="M8.22529 3.55871C9.75684 2.02716 11.8341 1.16675 14 1.16675C16.1659 1.16675 18.2432 2.02716 19.7747 3.55871C21.3063 5.09026 22.1667 7.16748 22.1667 9.33342C22.1667 13.2449 23.0032 15.6738 23.7742 17.0873C24.1613 17.7969 24.5382 18.2625 24.8001 18.5389C24.9313 18.6774 25.0344 18.7692 25.0965 18.8209C25.1275 18.8468 25.1484 18.8627 25.1574 18.8694C25.1588 18.8704 25.1599 18.8713 25.1607 18.8719C25.5789 19.1591 25.764 19.6847 25.6166 20.1715C25.4676 20.6635 25.0141 21.0001 24.5 21.0001H3.5C2.98589 21.0001 2.53237 20.6635 2.38339 20.1715C2.23599 19.6847 2.42107 19.1592 2.8393 18.8719C2.84012 18.8713 2.84124 18.8704 2.84264 18.8694C2.85162 18.8627 2.87245 18.8468 2.90351 18.8209C2.96559 18.7692 3.06871 18.6774 3.19993 18.5389C3.46176 18.2625 3.83869 17.7969 4.22579 17.0873C4.99675 15.6738 5.83333 13.2449 5.83333 9.33342C5.83333 7.16748 6.69375 5.09026 8.22529 3.55871ZM2.8511 18.8639C2.85119 18.8638 2.85128 18.8637 2.85137 18.8637C2.85137 18.8637 2.85136 18.8637 2.85136 18.8637L2.8511 18.8639ZM6.00754 18.6667H21.9925C21.9037 18.5213 21.8146 18.3673 21.7258 18.2046C20.7468 16.4097 19.8333 13.5886 19.8333 9.33342C19.8333 7.78632 19.2188 6.30259 18.1248 5.20863C17.0308 4.11466 15.5471 3.50008 14 3.50008C12.4529 3.50008 10.9692 4.11466 9.87521 5.20863C8.78125 6.30259 8.16667 7.78632 8.16667 9.33342C8.16667 13.5886 7.25325 16.4097 6.27421 18.2046C6.18543 18.3673 6.09631 18.5213 6.00754 18.6667Z" fill="#3E6AF4"/>
<path fill-rule="evenodd" clip-rule="evenodd" d="M11.3963 23.4909C11.9536 23.1676 12.6675 23.3574 12.9908 23.9147C13.0934 24.0915 13.2406 24.2383 13.4177 24.3403C13.5948 24.4423 13.7956 24.496 14 24.496C14.2044 24.496 14.4052 24.4423 14.5823 24.3403C14.7594 24.2383 14.9066 24.0915 15.0092 23.9147C15.3325 23.3574 16.0464 23.1676 16.6037 23.4909C17.1611 23.8143 17.3508 24.5282 17.0275 25.0855C16.7198 25.6159 16.2782 26.0562 15.7469 26.3622C15.2156 26.6682 14.6132 26.8293 14 26.8293C13.3868 26.8293 12.7844 26.6682 12.2531 26.3622C11.7218 26.0562 11.2802 25.6159 10.9725 25.0855C10.6492 24.5282 10.8389 23.8143 11.3963 23.4909Z" fill="#3E6AF4"/>
</svg>
