<svg width="180" height="180" viewBox="0 0 180 180" fill="none" xmlns="http://www.w3.org/2000/svg">
<rect x="0.5" y="0.5" width="179" height="179" rx="89.5" stroke="#CCCCCC"/>
<path fill-rule="evenodd" clip-rule="evenodd" d="M66.6667 90C64.8257 90 63.3333 91.4924 63.3333 93.3333V116.667C63.3333 118.508 64.8257 120 66.6667 120H113.333C115.174 120 116.667 118.508 116.667 116.667V93.3333C116.667 91.4924 115.174 90 113.333 90H66.6667ZM56.6667 93.3333C56.6667 87.8105 61.1438 83.3333 66.6667 83.3333H113.333C118.856 83.3333 123.333 87.8105 123.333 93.3333V116.667C123.333 122.189 118.856 126.667 113.333 126.667H66.6667C61.1438 126.667 56.6667 122.189 56.6667 116.667V93.3333Z" fill="black"/>
<path fill-rule="evenodd" clip-rule="evenodd" d="M90 60C86.4638 60 83.0724 61.4048 80.5719 63.9052C78.0714 66.4057 76.6667 69.7971 76.6667 73.3333V86.6667C76.6667 88.5076 75.1743 90 73.3333 90C71.4924 90 70 88.5076 70 86.6667V73.3333C70 68.029 72.1071 62.9419 75.8579 59.1912C79.6086 55.4405 84.6957 53.3333 90 53.3333C95.3043 53.3333 100.391 55.4405 104.142 59.1912C107.893 62.9419 110 68.029 110 73.3333V86.6667C110 88.5076 108.508 90 106.667 90C104.826 90 103.333 88.5076 103.333 86.6667V73.3333C103.333 69.7971 101.929 66.4057 99.4281 63.9052C96.9276 61.4048 93.5362 60 90 60Z" fill="black"/>
</svg>
