<svg width="180" height="180" viewBox="0 0 180 180" fill="none" xmlns="http://www.w3.org/2000/svg">
<rect x="0.5" y="0.5" width="179" height="179" rx="89.5" stroke="#3E6AF4" stroke-opacity="0.2"/>
<path fill-rule="evenodd" clip-rule="evenodd" d="M66.6666 89.9999C64.8257 89.9999 63.3333 91.4923 63.3333 93.3332V116.667C63.3333 118.508 64.8257 120 66.6666 120H113.333C115.174 120 116.667 118.508 116.667 116.667V93.3332C116.667 91.4923 115.174 89.9999 113.333 89.9999H66.6666ZM56.6666 93.3332C56.6666 87.8104 61.1438 83.3333 66.6666 83.3333H113.333C118.856 83.3333 123.333 87.8104 123.333 93.3332V116.667C123.333 122.189 118.856 126.667 113.333 126.667H66.6666C61.1438 126.667 56.6666 122.189 56.6666 116.667V93.3332Z" fill="black"/>
<path fill-rule="evenodd" clip-rule="evenodd" d="M90 59.9999C86.4638 59.9999 83.0724 61.4047 80.5719 63.9052C78.0714 66.4057 76.6667 69.797 76.6667 73.3333V86.6666C76.6667 88.5076 75.1743 89.9999 73.3333 89.9999C71.4924 89.9999 70 88.5076 70 86.6666V73.3333C70 68.0289 72.1071 62.9419 75.8579 59.1911C79.6086 55.4404 84.6957 53.3333 90 53.3333C95.3043 53.3333 100.391 55.4404 104.142 59.1911C107.893 62.9419 110 68.0289 110 73.3333V86.6666C110 88.5076 108.508 89.9999 106.667 89.9999C104.826 89.9999 103.333 88.5076 103.333 86.6666V73.3333C103.333 69.797 101.929 66.4057 99.4281 63.9052C96.9276 61.4047 93.5362 59.9999 90 59.9999Z" fill="black"/>
</svg>
