<svg width="50" height="50" viewBox="0 0 50 50" fill="none" xmlns="http://www.w3.org/2000/svg">
<path fill-rule="evenodd" clip-rule="evenodd" d="M2.08334 24.9999C2.08334 12.3431 12.3432 2.08325 25 2.08325C37.6569 2.08325 47.9167 12.3431 47.9167 24.9999C47.9167 37.6568 37.6569 47.9166 25 47.9166C12.3432 47.9166 2.08334 37.6568 2.08334 24.9999ZM25 6.24992C14.6444 6.24992 6.25001 14.6443 6.25001 24.9999C6.25001 35.3556 14.6444 43.7499 25 43.7499C35.3557 43.7499 43.75 35.3556 43.75 24.9999C43.75 14.6443 35.3557 6.24992 25 6.24992Z" fill="#34C759"/>
<path fill-rule="evenodd" clip-rule="evenodd" d="M32.7231 19.3602C33.5367 20.1738 33.5367 21.4929 32.7231 22.3065L24.3898 30.6398C23.5762 31.4534 22.2571 31.4534 21.4435 30.6398L17.2769 26.4731C16.4633 25.6595 16.4633 24.3405 17.2769 23.5269C18.0904 22.7133 19.4095 22.7133 20.2231 23.5269L22.9167 26.2204L29.7769 19.3602C30.5904 18.5466 31.9095 18.5466 32.7231 19.3602Z" fill="#34C759"/>
</svg>
