<svg width="50" height="50" viewBox="0 0 50 50" fill="none" xmlns="http://www.w3.org/2000/svg">
<path fill-rule="evenodd" clip-rule="evenodd" d="M25 6.24992C14.6447 6.24992 6.25001 14.6446 6.25001 24.9999C6.25001 35.3553 14.6447 43.7499 25 43.7499C35.3553 43.7499 43.75 35.3553 43.75 24.9999C43.75 14.6446 35.3553 6.24992 25 6.24992ZM2.08334 24.9999C2.08334 12.3434 12.3435 2.08325 25 2.08325C37.6565 2.08325 47.9167 12.3434 47.9167 24.9999C47.9167 37.6564 37.6565 47.9166 25 47.9166C12.3435 47.9166 2.08334 37.6564 2.08334 24.9999Z" fill="#FF3B30"/>
<path fill-rule="evenodd" clip-rule="evenodd" d="M32.7231 17.2769C33.5367 18.0905 33.5367 19.4096 32.7231 20.2232L20.2231 32.7232C19.4095 33.5368 18.0904 33.5368 17.2769 32.7232C16.4633 31.9096 16.4633 30.5905 17.2769 29.7769L29.7769 17.2769C30.5904 16.4633 31.9095 16.4633 32.7231 17.2769Z" fill="#FF3B30"/>
<path fill-rule="evenodd" clip-rule="evenodd" d="M17.2769 17.2769C18.0904 16.4633 19.4095 16.4633 20.2231 17.2769L32.7231 29.7769C33.5367 30.5905 33.5367 31.9096 32.7231 32.7232C31.9095 33.5368 30.5904 33.5368 29.7769 32.7232L17.2769 20.2232C16.4633 19.4096 16.4633 18.0905 17.2769 17.2769Z" fill="#FF3B30"/>
</svg>
