<svg width="24" height="24" viewBox="0 0 24 24" fill="none" xmlns="http://www.w3.org/2000/svg">
<mask id="mask0_878_967" style="mask-type:alpha" maskUnits="userSpaceOnUse" x="0" y="0" width="24" height="24">
<rect width="24" height="24" fill="#D9D9D9"/>
</mask>
<g mask="url(#mask0_878_967)">
<path d="M17 2.125C18.1 2.125 19.0417 2.51667 19.825 3.3C20.6083 4.08333 21 5.025 21 6.125C21 6.30833 20.9875 6.55417 20.9625 6.8625C20.9375 7.17083 20.9 7.525 20.85 7.925L19.475 18C19.3917 18.6333 19.1042 19.15 18.6125 19.55C18.1208 19.95 17.5583 20.15 16.925 20.15C16.5417 20.15 16.1875 20.0667 15.8625 19.9C15.5375 19.7333 15.2667 19.5 15.05 19.2L12.375 15.3C12.3417 15.2333 12.2875 15.1875 12.2125 15.1625C12.1375 15.1375 12.0583 15.125 11.975 15.125C11.9083 15.125 11.775 15.2 11.575 15.35L8.975 19.125C8.74167 19.4583 8.45417 19.7125 8.1125 19.8875C7.77083 20.0625 7.40833 20.15 7.025 20.15C6.39167 20.15 5.83333 19.9458 5.35 19.5375C4.86667 19.1292 4.58333 18.6083 4.5 17.975L3.15 7.925C3.1 7.525 3.0625 7.17083 3.0375 6.8625C3.0125 6.55417 3 6.30833 3 6.125C3 5.025 3.39167 4.08333 4.175 3.3C4.95833 2.51667 5.9 2.125 7 2.125C7.6 2.125 8.07917 2.20417 8.4375 2.3625C8.79583 2.52083 9.14167 2.69167 9.475 2.875C9.80833 3.05833 10.1625 3.22917 10.5375 3.3875C10.9125 3.54583 11.4 3.625 12 3.625C12.6 3.625 13.0875 3.54583 13.4625 3.3875C13.8375 3.22917 14.1917 3.05833 14.525 2.875C14.8583 2.69167 15.2083 2.52083 15.575 2.3625C15.9417 2.20417 16.4167 2.125 17 2.125ZM17 4.125C16.6167 4.125 16.2792 4.20417 15.9875 4.3625C15.6958 4.52083 15.375 4.69167 15.025 4.875C14.675 5.05833 14.2667 5.22917 13.8 5.3875C13.3333 5.54583 12.7333 5.625 12 5.625C11.2667 5.625 10.6667 5.54583 10.2 5.3875C9.73333 5.22917 9.325 5.05833 8.975 4.875C8.625 4.69167 8.30417 4.52083 8.0125 4.3625C7.72083 4.20417 7.38333 4.125 7 4.125C6.45 4.125 5.97917 4.32083 5.5875 4.7125C5.19583 5.10417 5 5.575 5 6.125C5 6.25833 5.00833 6.45 5.025 6.7C5.04167 6.95 5.075 7.24167 5.125 7.575L6.5 17.7C6.51667 17.8333 6.575 17.9375 6.675 18.0125C6.775 18.0875 6.89167 18.125 7.025 18.125C7.10833 18.125 7.18333 18.1083 7.25 18.075C7.31667 18.0417 7.36667 17.9917 7.4 17.925L9.925 14.225C10.1583 13.8917 10.4583 13.625 10.825 13.425C11.1917 13.225 11.5833 13.125 12 13.125C12.4167 13.125 12.8083 13.225 13.175 13.425C13.5417 13.625 13.8417 13.8917 14.075 14.225L16.65 18C16.6833 18.05 16.725 18.0875 16.775 18.1125C16.825 18.1375 16.8833 18.15 16.95 18.15C17.0833 18.15 17.2042 18.1125 17.3125 18.0375C17.4208 17.9625 17.4833 17.8583 17.5 17.725L18.875 7.575C18.925 7.24167 18.9583 6.95 18.975 6.7C18.9917 6.45 19 6.25833 19 6.125C19 5.575 18.8042 5.10417 18.4125 4.7125C18.0208 4.32083 17.55 4.125 17 4.125Z" fill="#1C1B1F"/>
</g>
</svg>
