<svg width="24" height="24" viewBox="0 0 24 24" fill="none" xmlns="http://www.w3.org/2000/svg">
<mask id="mask0_878_914" style="mask-type:alpha" maskUnits="userSpaceOnUse" x="0" y="0" width="24" height="24">
<rect width="24" height="24" fill="#D9D9D9"/>
</mask>
<g mask="url(#mask0_878_914)">
<path d="M6 22C5.16667 22 4.45833 21.7083 3.875 21.125C3.29167 20.5417 3 19.8333 3 19V5C3 4.16667 3.29167 3.45833 3.875 2.875C4.45833 2.29167 5.16667 2 6 2H17V18H6C5.71667 18 5.47917 18.0958 5.2875 18.2875C5.09583 18.4792 5 18.7167 5 19C5 19.2833 5.09583 19.5208 5.2875 19.7125C5.47917 19.9042 5.71667 20 6 20H19V4H21V22H6ZM6 16H15V4H6C5.71667 4 5.47917 4.09583 5.2875 4.2875C5.09583 4.47917 5 4.71667 5 5V16.175C5.16667 16.125 5.32917 16.0833 5.4875 16.05C5.64583 16.0167 5.81667 16 6 16ZM6.75 13.5H7.95L8.6 11.7H11.425L12.05 13.5H13.25L10.625 6.5H9.375L6.75 13.5ZM8.95 10.7L9.975 7.8H10.025L11.05 10.7H8.95Z" fill="#1C1B1F"/>
</g>
</svg>
