<svg width="24" height="24" viewBox="0 0 24 24" fill="none" xmlns="http://www.w3.org/2000/svg">
<mask id="mask0_878_937" style="mask-type:alpha" maskUnits="userSpaceOnUse" x="0" y="0" width="24" height="24">
<rect width="24" height="24" fill="#D9D9D9"/>
</mask>
<g mask="url(#mask0_878_937)">
<path d="M5 21V19H10V17C8.61667 17 7.4375 16.5125 6.4625 15.5375C5.4875 14.5625 5 13.3833 5 12C5 10.9833 5.27917 10.0583 5.8375 9.225C6.39583 8.39167 7.15 7.78333 8.1 7.4C8.23333 6.83333 8.52917 6.375 8.9875 6.025C9.44583 5.675 9.96667 5.5 10.55 5.5L10 3.95L10.95 3.6L10.6 2.7L12.5 2L12.8 2.95L13.75 2.6L16.5 10.1L15.55 10.45L15.9 11.4L14 12.1L13.7 11.15L12.75 11.5L12.15 9.85C11.9 10.0833 11.6125 10.2583 11.2875 10.375C10.9625 10.4917 10.6333 10.5333 10.3 10.5C9.93333 10.4667 9.59167 10.3542 9.275 10.1625C8.95833 9.97083 8.68333 9.73333 8.45 9.45C8 9.71667 7.64583 10.075 7.3875 10.525C7.12917 10.975 7 11.4667 7 12C7 12.8333 7.29167 13.5417 7.875 14.125C8.45833 14.7083 9.16667 15 10 15H18V17H13V19H19V21H5ZM13.65 9.55L14.55 9.2L12.85 4.5L11.9 4.85L13.65 9.55ZM10.5 9C10.7833 9 11.0208 8.90417 11.2125 8.7125C11.4042 8.52083 11.5 8.28333 11.5 8C11.5 7.71667 11.4042 7.47917 11.2125 7.2875C11.0208 7.09583 10.7833 7 10.5 7C10.2167 7 9.97917 7.09583 9.7875 7.2875C9.59583 7.47917 9.5 7.71667 9.5 8C9.5 8.28333 9.59583 8.52083 9.7875 8.7125C9.97917 8.90417 10.2167 9 10.5 9Z" fill="#1C1B1F"/>
</g>
</svg>
