<svg width="24" height="24" viewBox="0 0 24 24" fill="none" xmlns="http://www.w3.org/2000/svg">
<mask id="mask0_878_825" style="mask-type:alpha" maskUnits="userSpaceOnUse" x="0" y="0" width="24" height="24">
<rect width="24" height="24" fill="#D9D9D9"/>
</mask>
<g mask="url(#mask0_878_825)">
<path d="M4.175 20.9999C3.825 21.0832 3.52083 20.9957 3.2625 20.7374C3.00417 20.4791 2.91667 20.1749 3 19.8249L4 15.0499L8.95 19.9999L4.175 20.9999ZM8.95 19.9999L4 15.0499L15.45 3.5999C15.8333 3.21657 16.3083 3.0249 16.875 3.0249C17.4417 3.0249 17.9167 3.21657 18.3 3.5999L20.4 5.6999C20.7833 6.08324 20.975 6.55824 20.975 7.1249C20.975 7.69157 20.7833 8.16657 20.4 8.5499L8.95 19.9999ZM16.875 4.9999L6.525 15.3499L8.65 17.4749L19 7.1249L16.875 4.9999Z" fill="#1C1B1F"/>
</g>
</svg>
