<svg width="24" height="24" viewBox="0 0 24 24" fill="none" xmlns="http://www.w3.org/2000/svg">
<mask id="mask0_878_223" style="mask-type:alpha" maskUnits="userSpaceOnUse" x="0" y="0" width="24" height="24">
<rect width="24" height="24" fill="#D9D9D9"/>
</mask>
<g mask="url(#mask0_878_223)">
<path d="M8 22.5L6 21V17H5C4.45 17 3.97917 16.8042 3.5875 16.4125C3.19583 16.0208 3 15.55 3 15V7.5C2.71667 7.5 2.47917 7.40417 2.2875 7.2125C2.09583 7.02083 2 6.78333 2 6.5C2 6.21667 2.09583 5.97917 2.2875 5.7875C2.47917 5.59583 2.71667 5.5 3 5.5H6V4H5.5C5.21667 4 4.97917 3.90417 4.7875 3.7125C4.59583 3.52083 4.5 3.28333 4.5 3C4.5 2.71667 4.59583 2.47917 4.7875 2.2875C4.97917 2.09583 5.21667 2 5.5 2H8.5C8.78333 2 9.02083 2.09583 9.2125 2.2875C9.40417 2.47917 9.5 2.71667 9.5 3C9.5 3.28333 9.40417 3.52083 9.2125 3.7125C9.02083 3.90417 8.78333 4 8.5 4H8V5.5H11C11.2833 5.5 11.5208 5.59583 11.7125 5.7875C11.9042 5.97917 12 6.21667 12 6.5C12 6.78333 11.9042 7.02083 11.7125 7.2125C11.5208 7.40417 11.2833 7.5 11 7.5V15C11 15.55 10.8042 16.0208 10.4125 16.4125C10.0208 16.8042 9.55 17 9 17H8V22.5ZM5 15H9V13.5H7.25C7.05 13.5 6.875 13.425 6.725 13.275C6.575 13.125 6.5 12.95 6.5 12.75C6.5 12.55 6.575 12.375 6.725 12.225C6.875 12.075 7.05 12 7.25 12H9V10.5H7.25C7.05 10.5 6.875 10.425 6.725 10.275C6.575 10.125 6.5 9.95 6.5 9.75C6.5 9.55 6.575 9.375 6.725 9.225C6.875 9.075 7.05 9 7.25 9H9V7.5H5V15ZM15 22C14.45 22 13.9792 21.8042 13.5875 21.4125C13.1958 21.0208 13 20.55 13 20V13.5C13 13.0167 13.0833 12.6167 13.25 12.3C13.4167 11.9833 13.5917 11.7083 13.775 11.475C13.9583 11.2417 14.125 11.0542 14.275 10.9125C14.425 10.7708 14.5 10.6333 14.5 10.5V10C14.2167 10 13.9792 9.90417 13.7875 9.7125C13.5958 9.52083 13.5 9.28333 13.5 9C13.5 8.71667 13.5958 8.47917 13.7875 8.2875C13.9792 8.09583 14.2167 8 14.5 8H19.5C19.7833 8 20.0208 8.09583 20.2125 8.2875C20.4042 8.47917 20.5 8.71667 20.5 9C20.5 9.28333 20.4042 9.52083 20.2125 9.7125C20.0208 9.90417 19.7833 10 19.5 10V10.5C19.5 10.6333 19.5833 10.7833 19.75 10.95C19.9167 11.1167 20.1 11.3167 20.3 11.55C20.4833 11.7833 20.6458 12.0583 20.7875 12.375C20.9292 12.6917 21 13.0667 21 13.5V20C21 20.55 20.8042 21.0208 20.4125 21.4125C20.0208 21.8042 19.55 22 19 22H15ZM15 14H19V13.5C19 13.25 18.925 13.0333 18.775 12.85C18.625 12.6667 18.4583 12.4667 18.275 12.25C18.0917 12.0333 17.9167 11.7917 17.75 11.525C17.5833 11.2583 17.5 10.9167 17.5 10.5V10H16.5V10.5C16.5 10.9 16.4208 11.2333 16.2625 11.5C16.1042 11.7667 15.9333 12.0083 15.75 12.225C15.5667 12.4417 15.3958 12.6458 15.2375 12.8375C15.0792 13.0292 15 13.25 15 13.5V14ZM15 17H19V15.5H15V17ZM15 20H19V18.5H15V20Z" fill="#1C1B1F"/>
</g>
</svg>
