<svg width="24" height="24" viewBox="0 0 24 24" fill="none" xmlns="http://www.w3.org/2000/svg">
<mask id="mask0_878_374" style="mask-type:alpha" maskUnits="userSpaceOnUse" x="0" y="0" width="24" height="24">
<rect width="24" height="24" fill="#D9D9D9"/>
</mask>
<g mask="url(#mask0_878_374)">
<path d="M2 22L22 2V11.65C21.6833 11.5 21.3583 11.3792 21.025 11.2875C20.6917 11.1958 20.35 11.125 20 11.075V6.825L6.825 20H12.25C12.35 20.3667 12.4833 20.7125 12.65 21.0375C12.8167 21.3625 13 21.6833 13.2 22H2ZM18 23L17.7 21.5C17.5 21.4167 17.3125 21.3292 17.1375 21.2375C16.9625 21.1458 16.7833 21.0333 16.6 20.9L15.15 21.35L14.15 19.65L15.3 18.65C15.2667 18.4333 15.25 18.2167 15.25 18C15.25 17.7833 15.2667 17.5667 15.3 17.35L14.15 16.35L15.15 14.65L16.6 15.1C16.7833 14.9667 16.9625 14.8542 17.1375 14.7625C17.3125 14.6708 17.5 14.5833 17.7 14.5L18 13H20L20.3 14.5C20.5 14.5833 20.6875 14.6708 20.8625 14.7625C21.0375 14.8542 21.2167 14.9667 21.4 15.1L22.85 14.65L23.85 16.35L22.7 17.35C22.7333 17.5667 22.75 17.7833 22.75 18C22.75 18.2167 22.7333 18.4333 22.7 18.65L23.85 19.65L22.85 21.35L21.4 20.9C21.2167 21.0333 21.0375 21.1458 20.8625 21.2375C20.6875 21.3292 20.5 21.4167 20.3 21.5L20 23H18ZM19 20C19.55 20 20.0208 19.8042 20.4125 19.4125C20.8042 19.0208 21 18.55 21 18C21 17.45 20.8042 16.9792 20.4125 16.5875C20.0208 16.1958 19.55 16 19 16C18.45 16 17.9792 16.1958 17.5875 16.5875C17.1958 16.9792 17 17.45 17 18C17 18.55 17.1958 19.0208 17.5875 19.4125C17.9792 19.8042 18.45 20 19 20Z" fill="#1C1B1F"/>
</g>
</svg>
