<svg width="24" height="24" viewBox="0 0 24 24" fill="none" xmlns="http://www.w3.org/2000/svg">
<mask id="mask0_878_1523" style="mask-type:alpha" maskUnits="userSpaceOnUse" x="0" y="0" width="24" height="24">
<rect width="24" height="24" fill="#D9D9D9"/>
</mask>
<g mask="url(#mask0_878_1523)">
<path d="M20.65 9.37507L19.25 7.97507L20 7.20007L16.8 4.00007L16.025 4.75007L14.6 3.32507L15.35 2.55007C15.7333 2.16674 16.2083 1.97924 16.775 1.98757C17.3417 1.9959 17.8167 2.19174 18.2 2.57507L21.425 5.80007C21.8083 6.1834 22 6.65424 22 7.21257C22 7.7709 21.8083 8.24174 21.425 8.62507L20.65 9.37507ZM8.64999 21.4001C8.26666 21.7834 7.79583 21.9751 7.23749 21.9751C6.67916 21.9751 6.20833 21.7834 5.82499 21.4001L2.59999 18.1751C2.21666 17.7917 2.02499 17.3209 2.02499 16.7626C2.02499 16.2042 2.21666 15.7334 2.59999 15.3501L3.34999 14.6001L4.77499 16.0251L3.99999 16.7751L7.22499 20.0001L7.97499 19.2251L9.39999 20.6501L8.64999 21.4001ZM18.575 13.0001L20 11.5751L12.425 4.00007L11 5.42507L18.575 13.0001ZM11.575 20.0001L13 18.5501L5.44999 11.0001L3.99999 12.4251L11.575 20.0001ZM11.425 14.1501L14.175 11.4251L12.575 9.82507L9.84999 12.5751L11.425 14.1501ZM13 21.4001C12.6167 21.7834 12.1417 21.9751 11.575 21.9751C11.0083 21.9751 10.5333 21.7834 10.15 21.4001L2.59999 13.8501C2.21666 13.4667 2.02499 12.9917 2.02499 12.4251C2.02499 11.8584 2.21666 11.3834 2.59999 11.0001L4.02499 9.57507C4.40833 9.19174 4.87916 9.00007 5.43749 9.00007C5.99583 9.00007 6.46666 9.19174 6.84999 9.57507L8.42499 11.1501L11.175 8.40007L9.59999 6.85007C9.21666 6.46674 9.02499 5.99174 9.02499 5.42507C9.02499 4.8584 9.21666 4.3834 9.59999 4.00007L11.025 2.57507C11.4083 2.19174 11.8792 2.00007 12.4375 2.00007C12.9958 2.00007 13.4667 2.19174 13.85 2.57507L21.425 10.1501C21.8083 10.5334 22 11.0042 22 11.5626C22 12.1209 21.8083 12.5917 21.425 12.9751L20 14.4001C19.6167 14.7834 19.1417 14.9751 18.575 14.9751C18.0083 14.9751 17.5333 14.7834 17.15 14.4001L15.6 12.8251L12.85 15.5751L14.425 17.1501C14.8083 17.5334 15 18.0042 15 18.5626C15 19.1209 14.8083 19.5917 14.425 19.9751L13 21.4001Z" fill="#1C1B1F"/>
</g>
</svg>
